STARTFONT 2.1
FONT -Monotype-Rockwell-Bold-I-Normal--14-140-72-72-P-74-ISO8859-1
SIZE 14 72 72
FONTBOUNDINGBOX 22 18 -6 -4

STARTPROPERTIES 22
FOUNDRY "Monotype"
FAMILY_NAME "Rockwell"
WEIGHT_NAME "Bold"
SLANT "I"
SETWIDTH_NAME "Normal"
ADD_STYLE_NAME ""
PIXEL_SIZE 14
POINT_SIZE 140
RESOLUTION_X 72
RESOLUTION_Y 72
SPACING "P"
AVERAGE_WIDTH 74
CHARSET_REGISTRY "ISO8859"
CHARSET_ENCODING "1"
FULL_NAME "Rockwell-BoldItalic"
COPYRIGHT "Copyright (c) 1991 The Monotype Corporation plc."
WEIGHT 10
X_HEIGHT 7
QUAD_WIDTH 9
DEFAULT_CHAR 32
FONT_DESCENT 4
FONT_ASCENT 13
ENDPROPERTIES

CHARS 190

STARTCHAR space
ENCODING 32
SWIDTH 250 0
DWIDTH 4 0
BBX 1 1 0 0
BITMAP
00
ENDCHAR

STARTCHAR exclam
ENCODING 33
SWIDTH 333 0
DWIDTH 5 0
BBX 4 10 1 0
BITMAP
30
30
30
20
20
20
20
00
E0
C0
ENDCHAR

STARTCHAR quotedbl
ENCODING 34
SWIDTH 552 0
DWIDTH 8 0
BBX 6 5 3 5
BITMAP
C8
DC
D8
90
90
ENDCHAR

STARTCHAR numbersign
ENCODING 35
SWIDTH 668 0
DWIDTH 9 0
BBX 8 10 1 0
BITMAP
13
32
FF
26
66
66
FF
44
44
4C
ENDCHAR

STARTCHAR dollar
ENCODING 36
SWIDTH 500 0
DWIDTH 7 0
BBX 7 11 1 -1
BITMAP
3C
2E
76
70
38
1C
1C
EC
EC
78
20
ENDCHAR

STARTCHAR percent
ENCODING 37
SWIDTH 927 0
DWIDTH 13 0
BBX 11 10 2 0
BITMAP
7060
D080
D900
F200
6400
0DC0
1B60
3360
6340
C180
ENDCHAR

STARTCHAR ampersand
ENCODING 38
SWIDTH 740 0
DWIDTH 10 0
BBX 10 10 1 0
BITMAP
1E00
1200
1200
1C00
39C0
6D80
C700
C700
C700
7980
ENDCHAR

STARTCHAR quoteright
ENCODING 39
SWIDTH 333 0
DWIDTH 5 0
BBX 3 4 2 6
BITMAP
60
60
40
C0
ENDCHAR

STARTCHAR parenleft
ENCODING 40
SWIDTH 344 0
DWIDTH 5 0
BBX 5 13 1 -3
BITMAP
08
18
30
60
60
E0
C0
C0
C0
C0
C0
60
20
ENDCHAR

STARTCHAR parenright
ENCODING 41
SWIDTH 344 0
DWIDTH 5 0
BBX 5 13 0 -3
BITMAP
10
18
18
18
18
18
18
18
18
30
20
40
80
ENDCHAR

STARTCHAR asterisk
ENCODING 42
SWIDTH 563 0
DWIDTH 8 0
BBX 7 7 2 3
BITMAP
10
58
D0
7E
34
D8
48
ENDCHAR

STARTCHAR plus
ENCODING 43
SWIDTH 668 0
DWIDTH 9 0
BBX 7 7 1 1
BITMAP
10
10
10
FE
10
10
10
ENDCHAR

STARTCHAR comma
ENCODING 44
SWIDTH 333 0
DWIDTH 5 0
BBX 3 4 0 -2
BITMAP
60
60
40
C0
ENDCHAR

STARTCHAR minus
ENCODING 45
SWIDTH 668 0
DWIDTH 9 0
BBX 8 1 1 4
BITMAP
FF
ENDCHAR

STARTCHAR period
ENCODING 46
SWIDTH 333 0
DWIDTH 5 0
BBX 3 2 1 0
BITMAP
E0
C0
ENDCHAR

STARTCHAR slash
ENCODING 47
SWIDTH 508 0
DWIDTH 6 0
BBX 8 13 0 -3
BITMAP
03
02
04
04
08
08
10
10
20
20
60
40
C0
ENDCHAR

STARTCHAR zero
ENCODING 48
SWIDTH 542 0
DWIDTH 8 0
BBX 7 10 1 0
BITMAP
1C
24
66
46
CC
CC
CC
CC
D8
70
ENDCHAR

STARTCHAR one
ENCODING 49
SWIDTH 542 0
DWIDTH 8 0
BBX 5 10 1 0
BITMAP
38
18
18
10
10
30
30
30
20
F0
ENDCHAR

STARTCHAR two
ENCODING 50
SWIDTH 542 0
DWIDTH 8 0
BBX 7 10 1 0
BITMAP
1C
26
66
06
0C
10
20
64
C4
F8
ENDCHAR

STARTCHAR three
ENCODING 51
SWIDTH 542 0
DWIDTH 8 0
BBX 7 10 1 0
BITMAP
3C
66
06
0C
18
0C
0C
CC
CC
78
ENDCHAR

STARTCHAR four
ENCODING 52
SWIDTH 542 0
DWIDTH 8 0
BBX 7 10 1 0
BITMAP
0C
1C
1C
28
48
88
FE
18
18
78
ENDCHAR

STARTCHAR five
ENCODING 53
SWIDTH 542 0
DWIDTH 8 0
BBX 7 10 1 0
BITMAP
3E
26
20
20
78
2C
0C
CC
DC
70
ENDCHAR

STARTCHAR six
ENCODING 54
SWIDTH 542 0
DWIDTH 8 0
BBX 7 10 1 0
BITMAP
1C
26
60
40
78
CC
CC
CC
D8
70
ENDCHAR

STARTCHAR seven
ENCODING 55
SWIDTH 542 0
DWIDTH 8 0
BBX 7 10 1 0
BITMAP
7E
42
04
08
18
18
30
30
30
F0
ENDCHAR

STARTCHAR eight
ENCODING 56
SWIDTH 542 0
DWIDTH 8 0
BBX 7 10 1 0
BITMAP
1C
36
66
66
3C
6C
CC
CC
CC
70
ENDCHAR

STARTCHAR nine
ENCODING 57
SWIDTH 542 0
DWIDTH 8 0
BBX 7 10 1 0
BITMAP
1C
26
66
66
66
3E
0C
CC
D8
70
ENDCHAR

STARTCHAR colon
ENCODING 58
SWIDTH 333 0
DWIDTH 5 0
BBX 4 7 1 0
BITMAP
70
60
00
00
00
E0
C0
ENDCHAR

STARTCHAR semicolon
ENCODING 59
SWIDTH 333 0
DWIDTH 5 0
BBX 4 9 0 -2
BITMAP
30
30
00
00
00
60
60
40
C0
ENDCHAR

STARTCHAR less
ENCODING 60
SWIDTH 667 0
DWIDTH 9 0
BBX 8 8 1 1
BITMAP
01
07
38
E0
E0
3C
07
01
ENDCHAR

STARTCHAR equal
ENCODING 61
SWIDTH 667 0
DWIDTH 9 0
BBX 8 5 1 2
BITMAP
FF
00
00
00
FF
ENDCHAR

STARTCHAR greater
ENCODING 62
SWIDTH 667 0
DWIDTH 9 0
BBX 8 8 1 1
BITMAP
80
E0
38
07
07
38
E0
80
ENDCHAR

STARTCHAR question
ENCODING 63
SWIDTH 542 0
DWIDTH 8 0
BBX 7 10 1 0
BITMAP
7C
CC
0E
0C
38
20
00
00
60
60
ENDCHAR

STARTCHAR at
ENCODING 64
SWIDTH 979 0
DWIDTH 14 0
BBX 13 13 0 -3
BITMAP
0FC0
3060
6010
47D8
C9C8
98C8
9098
9190
99B0
4FD8
6010
3070
0FC0
ENDCHAR

STARTCHAR A
ENCODING 65
SWIDTH 646 0
DWIDTH 9 0
BBX 10 10 0 0
BITMAP
0FC0
0500
0500
0900
0980
0980
1F80
1180
2180
F3C0
ENDCHAR

STARTCHAR B
ENCODING 66
SWIDTH 667 0
DWIDTH 9 0
BBX 9 10 0 0
BITMAP
3F80
1980
1980
1980
3F00
3300
3380
3380
3300
FE00
ENDCHAR

STARTCHAR C
ENCODING 67
SWIDTH 771 0
DWIDTH 11 0
BBX 11 10 1 0
BITMAP
0F60
38C0
70C0
6000
E000
E000
E000
E180
6380
3E00
ENDCHAR

STARTCHAR D
ENCODING 68
SWIDTH 760 0
DWIDTH 11 0
BBX 11 10 0 0
BITMAP
3F80
19C0
18C0
18E0
18E0
30E0
30C0
31C0
3180
FF00
ENDCHAR

STARTCHAR E
ENCODING 69
SWIDTH 635 0
DWIDTH 9 0
BBX 10 10 0 0
BITMAP
3FC0
18C0
3980
3800
3E00
3000
3000
3180
7300
FF00
ENDCHAR

STARTCHAR F
ENCODING 70
SWIDTH 583 0
DWIDTH 8 0
BBX 10 10 0 0
BITMAP
3FC0
18C0
18C0
1800
3E00
3800
3000
3000
3000
F800
ENDCHAR

STARTCHAR G
ENCODING 71
SWIDTH 813 0
DWIDTH 11 0
BBX 11 10 1 0
BITMAP
0F60
38C0
70C0
E000
E000
E000
E3C0
E1C0
6380
3E00
ENDCHAR

STARTCHAR H
ENCODING 72
SWIDTH 740 0
DWIDTH 10 0
BBX 11 10 0 0
BITMAP
3DE0
18C0
19C0
39C0
3F80
3180
3180
3380
7380
F780
ENDCHAR

STARTCHAR I
ENCODING 73
SWIDTH 396 0
DWIDTH 6 0
BBX 7 10 0 0
BITMAP
3E
18
18
18
18
30
30
30
30
F8
ENDCHAR

STARTCHAR J
ENCODING 74
SWIDTH 375 0
DWIDTH 5 0
BBX 9 13 -1 -3
BITMAP
0F80
0600
0600
0E00
0C00
0C00
0C00
0C00
1800
1800
1800
3000
E000
ENDCHAR

STARTCHAR K
ENCODING 75
SWIDTH 708 0
DWIDTH 10 0
BBX 12 10 0 0
BITMAP
3DF0
18C0
1980
1B00
3600
3600
3300
3300
3180
FFC0
ENDCHAR

STARTCHAR L
ENCODING 76
SWIDTH 604 0
DWIDTH 8 0
BBX 9 10 0 0
BITMAP
3C00
1800
1800
1800
3000
3000
3180
3100
3100
FF00
ENDCHAR

STARTCHAR M
ENCODING 77
SWIDTH 1021 0
DWIDTH 14 0
BBX 15 10 0 0
BITMAP
3C1E
162C
162C
1658
2658
2698
2698
2718
2230
F27C
ENDCHAR

STARTCHAR N
ENCODING 78
SWIDTH 792 0
DWIDTH 11 0
BBX 12 10 0 0
BITMAP
3CF0
1C40
1440
1640
2640
2240
2380
2380
2380
F180
ENDCHAR

STARTCHAR O
ENCODING 79
SWIDTH 823 0
DWIDTH 12 0
BBX 10 10 1 0
BITMAP
0F00
31C0
70C0
60C0
E0C0
E0C0
E1C0
E180
6300
3E00
ENDCHAR

STARTCHAR P
ENCODING 80
SWIDTH 646 0
DWIDTH 9 0
BBX 10 10 0 0
BITMAP
3F00
1980
19C0
39C0
3980
3F00
3000
3000
7000
F800
ENDCHAR

STARTCHAR Q
ENCODING 81
SWIDTH 823 0
DWIDTH 12 0
BBX 10 12 1 -2
BITMAP
0F00
31C0
70C0
60C0
E0C0
E0C0
E1C0
E180
6300
3C00
3800
4600
ENDCHAR

STARTCHAR R
ENCODING 82
SWIDTH 698 0
DWIDTH 10 0
BBX 10 10 0 0
BITMAP
3F80
19C0
19C0
39C0
3F80
3300
3300
3300
3300
F980
ENDCHAR

STARTCHAR S
ENCODING 83
SWIDTH 510 0
DWIDTH 7 0
BBX 8 10 0 0
BITMAP
1F
32
30
38
1C
0C
0E
0E
4C
F8
ENDCHAR

STARTCHAR T
ENCODING 84
SWIDTH 688 0
DWIDTH 10 0
BBX 9 10 1 0
BITMAP
7F80
4D80
9900
1800
1800
1800
1800
3800
3000
7800
ENDCHAR

STARTCHAR U
ENCODING 85
SWIDTH 708 0
DWIDTH 10 0
BBX 9 10 2 0
BITMAP
FB80
6100
6100
6200
6200
E200
C200
C200
E400
7800
ENDCHAR

STARTCHAR V
ENCODING 86
SWIDTH 646 0
DWIDTH 9 0
BBX 10 10 1 0
BITMAP
F3C0
6100
6200
6200
6400
7400
3800
3800
3000
3000
ENDCHAR

STARTCHAR W
ENCODING 87
SWIDTH 896 0
DWIDTH 13 0
BBX 14 10 1 0
BITMAP
F7FC
6310
6720
6720
6F40
6BC0
7B80
7B80
7300
7300
ENDCHAR

STARTCHAR X
ENCODING 88
SWIDTH 677 0
DWIDTH 9 0
BBX 11 10 0 0
BITMAP
3DE0
1C80
0D80
0F00
0E00
0E00
1F00
1300
2380
F7C0
ENDCHAR

STARTCHAR Y
ENCODING 89
SWIDTH 625 0
DWIDTH 9 0
BBX 10 10 1 0
BITMAP
F3C0
6300
2200
3400
3C00
1800
3800
3800
3000
7800
ENDCHAR

STARTCHAR Z
ENCODING 90
SWIDTH 604 0
DWIDTH 8 0
BBX 10 10 0 0
BITMAP
3FC0
3380
2300
0600
0C00
1C00
3800
7300
6300
FE00
ENDCHAR

STARTCHAR bracketleft
ENCODING 91
SWIDTH 385 0
DWIDTH 5 0
BBX 7 13 0 -3
BITMAP
1E
10
10
30
30
30
20
60
60
60
40
40
F0
ENDCHAR

STARTCHAR backslash
ENCODING 92
SWIDTH 508 0
DWIDTH 9 0
BBX 3 10 4 0
BITMAP
C0
C0
C0
40
60
60
60
60
60
60
ENDCHAR

STARTCHAR bracketright
ENCODING 93
SWIDTH 385 0
DWIDTH 5 0
BBX 6 13 0 -3
BITMAP
1C
0C
0C
0C
08
18
18
18
10
10
30
30
F0
ENDCHAR

STARTCHAR asciicircum
ENCODING 94
SWIDTH 583 0
DWIDTH 8 0
BBX 6 5 2 5
BITMAP
30
30
48
48
84
ENDCHAR

STARTCHAR underscore
ENCODING 95
SWIDTH 500 0
DWIDTH 7 0
BBX 7 1 0 -3
BITMAP
FE
ENDCHAR

STARTCHAR quoteleft
ENCODING 96
SWIDTH 333 0
DWIDTH 5 0
BBX 3 4 2 6
BITMAP
60
40
E0
C0
ENDCHAR

STARTCHAR a
ENCODING 97
SWIDTH 573 0
DWIDTH 8 0
BBX 7 7 1 0
BITMAP
7C
06
06
7E
CC
CC
7E
ENDCHAR

STARTCHAR b
ENCODING 98
SWIDTH 604 0
DWIDTH 8 0
BBX 8 10 0 0
BITMAP
38
18
30
3F
33
33
33
73
77
FE
ENDCHAR

STARTCHAR c
ENCODING 99
SWIDTH 531 0
DWIDTH 7 0
BBX 7 7 1 0
BITMAP
3E
66
C0
C0
C0
CC
78
ENDCHAR

STARTCHAR d
ENCODING 100
SWIDTH 604 0
DWIDTH 8 0
BBX 8 10 1 0
BITMAP
07
03
03
3A
66
C6
C6
C6
CC
7E
ENDCHAR

STARTCHAR e
ENCODING 101
SWIDTH 552 0
DWIDTH 8 0
BBX 7 7 1 0
BITMAP
3C
64
C6
FE
C0
CC
78
ENDCHAR

STARTCHAR f
ENCODING 102
SWIDTH 333 0
DWIDTH 5 0
BBX 7 10 0 0
BITMAP
0E
18
30
78
30
20
20
60
60
F0
ENDCHAR

STARTCHAR g
ENCODING 103
SWIDTH 604 0
DWIDTH 8 0
BBX 9 10 0 -3
BITMAP
1F80
3300
6300
6300
6200
6600
3E00
0600
8C00
F800
ENDCHAR

STARTCHAR h
ENCODING 104
SWIDTH 604 0
DWIDTH 8 0
BBX 8 10 0 0
BITMAP
38
18
10
36
3F
33
22
26
66
F7
ENDCHAR

STARTCHAR i
ENCODING 105
SWIDTH 333 0
DWIDTH 5 0
BBX 5 10 0 0
BITMAP
18
18
00
70
30
30
20
20
60
F0
ENDCHAR

STARTCHAR j
ENCODING 106
SWIDTH 323 0
DWIDTH 5 0
BBX 6 13 0 -3
BITMAP
0C
0C
00
38
18
18
18
10
10
30
30
20
E0
ENDCHAR

STARTCHAR k
ENCODING 107
SWIDTH 573 0
DWIDTH 8 0
BBX 8 10 0 0
BITMAP
38
18
10
37
36
34
2C
3C
64
F7
ENDCHAR

STARTCHAR l
ENCODING 108
SWIDTH 333 0
DWIDTH 5 0
BBX 5 10 0 0
BITMAP
38
18
10
30
30
30
20
20
60
F0
ENDCHAR

STARTCHAR m
ENCODING 109
SWIDTH 969 0
DWIDTH 14 0
BBX 13 7 0 0
BITMAP
7F38
3BD8
3318
3318
2318
2330
F7B8
ENDCHAR

STARTCHAR n
ENCODING 110
SWIDTH 604 0
DWIDTH 8 0
BBX 8 7 0 0
BITMAP
76
7F
33
33
26
66
F7
ENDCHAR

STARTCHAR o
ENCODING 111
SWIDTH 573 0
DWIDTH 8 0
BBX 7 7 1 0
BITMAP
3C
66
C6
C6
C6
CC
78
ENDCHAR

STARTCHAR p
ENCODING 112
SWIDTH 604 0
DWIDTH 8 0
BBX 9 10 0 -3
BITMAP
3F00
1980
1980
3180
3180
3B00
3E00
2000
6000
F000
ENDCHAR

STARTCHAR q
ENCODING 113
SWIDTH 604 0
DWIDTH 8 0
BBX 8 10 1 -3
BITMAP
3F
66
C6
C6
C6
CC
7C
0C
0C
3E
ENDCHAR

STARTCHAR r
ENCODING 114
SWIDTH 417 0
DWIDTH 6 0
BBX 7 7 0 0
BITMAP
7E
30
30
20
20
60
F0
ENDCHAR

STARTCHAR s
ENCODING 115
SWIDTH 490 0
DWIDTH 7 0
BBX 7 7 0 0
BITMAP
3E
66
60
3C
04
C4
F8
ENDCHAR

STARTCHAR t
ENCODING 116
SWIDTH 333 0
DWIDTH 5 0
BBX 4 10 1 0
BITMAP
10
30
60
F0
60
60
C0
C0
F0
E0
ENDCHAR

STARTCHAR u
ENCODING 117
SWIDTH 604 0
DWIDTH 8 0
BBX 7 7 1 0
BITMAP
EE
66
64
CC
CC
FE
EE
ENDCHAR

STARTCHAR v
ENCODING 118
SWIDTH 510 0
DWIDTH 7 0
BBX 8 7 0 0
BITMAP
FF
64
6C
68
68
70
30
ENDCHAR

STARTCHAR w
ENCODING 119
SWIDTH 760 0
DWIDTH 11 0
BBX 11 7 0 0
BITMAP
F6E0
6640
6E80
6E80
7380
3300
2300
ENDCHAR

STARTCHAR x
ENCODING 120
SWIDTH 500 0
DWIDTH 7 0
BBX 8 7 0 0
BITMAP
73
36
1C
18
1C
2C
C6
ENDCHAR

STARTCHAR y
ENCODING 121
SWIDTH 563 0
DWIDTH 8 0
BBX 8 10 0 -3
BITMAP
F7
66
64
2C
28
38
30
20
20
C0
ENDCHAR

STARTCHAR z
ENCODING 122
SWIDTH 479 0
DWIDTH 7 0
BBX 7 7 0 0
BITMAP
3E
64
08
18
30
64
FC
ENDCHAR

STARTCHAR braceleft
ENCODING 123
SWIDTH 385 0
DWIDTH 5 0
BBX 6 13 1 -3
BITMAP
0C
10
10
10
30
20
C0
E0
60
60
60
60
70
ENDCHAR

STARTCHAR bar
ENCODING 124
SWIDTH 611 0
DWIDTH 9 0
BBX 5 13 2 -3
BITMAP
18
10
10
30
20
20
20
20
60
40
40
40
C0
ENDCHAR

STARTCHAR braceright
ENCODING 125
SWIDTH 385 0
DWIDTH 5 0
BBX 6 13 0 -3
BITMAP
38
0C
08
18
18
1C
0C
10
10
30
20
20
C0
ENDCHAR

STARTCHAR asciitilde
ENCODING 126
SWIDTH 583 0
DWIDTH 8 0
BBX 7 2 1 6
BITMAP
F2
8E
ENDCHAR

STARTCHAR exclamdown
ENCODING 161
SWIDTH 333 0
DWIDTH 5 0
BBX 4 10 0 -3
BITMAP
30
30
00
20
20
40
40
40
40
C0
ENDCHAR

STARTCHAR cent
ENCODING 162
SWIDTH 531 0
DWIDTH 7 0
BBX 7 11 1 -2
BITMAP
04
08
3E
6E
D0
D0
D0
DC
38
20
40
ENDCHAR

STARTCHAR sterling
ENCODING 163
SWIDTH 510 0
DWIDTH 7 0
BBX 7 10 1 0
BITMAP
1E
36
30
30
30
FC
30
F6
A4
D8
ENDCHAR

STARTCHAR currency
ENCODING 164
SWIDTH 667 0
DWIDTH 9 0
BBX 7 6 2 1
BITMAP
FE
CC
84
84
CC
FE
ENDCHAR

STARTCHAR yen
ENCODING 165
SWIDTH 625 0
DWIDTH 9 0
BBX 10 10 0 0
BITMAP
7BC0
3180
FFC0
1E00
FF80
1C00
1800
1800
1800
7C00
ENDCHAR

STARTCHAR brokenbar
ENCODING 166
SWIDTH 611 0
DWIDTH 9 0
BBX 5 13 2 -3
BITMAP
18
10
10
30
30
20
00
00
60
40
40
40
C0
ENDCHAR

STARTCHAR section
ENCODING 167
SWIDTH 510 0
DWIDTH 7 0
BBX 7 13 0 -3
BITMAP
1C
32
30
30
2C
46
C6
66
24
18
CC
CC
78
ENDCHAR

STARTCHAR dieresis
ENCODING 168
SWIDTH 333 0
DWIDTH 5 0
BBX 5 2 1 8
BITMAP
D8
D8
ENDCHAR

STARTCHAR copyright
ENCODING 169
SWIDTH 740 0
DWIDTH 10 0
BBX 10 10 0 0
BITMAP
1E00
6180
4E80
9140
9040
9040
9140
4E80
6180
1E00
ENDCHAR

STARTCHAR ordfeminine
ENCODING 170
SWIDTH 375 0
DWIDTH 5 0
BBX 5 4 1 6
BITMAP
70
10
F0
F8
ENDCHAR

STARTCHAR guillemotleft
ENCODING 171
SWIDTH 531 0
DWIDTH 7 0
BBX 7 7 0 0
BITMAP
24
36
32
32
26
64
CC
ENDCHAR

STARTCHAR logicalnot
ENCODING 172
SWIDTH 668 0
DWIDTH 9 0
BBX 8 4 1 2
BITMAP
FF
03
03
03
ENDCHAR

STARTCHAR hyphen
ENCODING 173
SWIDTH 344 0
DWIDTH 5 0
BBX 4 1 1 2
BITMAP
F0
ENDCHAR

STARTCHAR registered
ENCODING 174
SWIDTH 740 0
DWIDTH 10 0
BBX 10 10 0 0
BITMAP
1E00
6180
5E80
9240
9E40
9440
9640
5280
6180
1E00
ENDCHAR

STARTCHAR macron
ENCODING 175
SWIDTH 333 0
DWIDTH 5 0
BBX 6 1 0 9
BITMAP
FC
ENDCHAR

STARTCHAR degree
ENCODING 176
SWIDTH 396 0
DWIDTH 6 0
BBX 5 5 1 5
BITMAP
70
88
88
88
70
ENDCHAR

STARTCHAR plusminus
ENCODING 177
SWIDTH 668 0
DWIDTH 9 0
BBX 7 10 1 0
BITMAP
10
10
10
FE
10
10
10
00
00
FE
ENDCHAR

STARTCHAR twosuperior
ENCODING 178
SWIDTH 333 0
DWIDTH 5 0
BBX 4 6 -5 4
BITMAP
70
50
30
40
B0
E0
ENDCHAR

STARTCHAR threesuperior
ENCODING 179
SWIDTH 333 0
DWIDTH 5 0
BBX 4 6 -5 4
BITMAP
70
50
70
20
A0
E0
ENDCHAR

STARTCHAR acute
ENCODING 180
SWIDTH 333 0
DWIDTH 5 0
BBX 4 2 2 8
BITMAP
70
C0
ENDCHAR

STARTCHAR mu
ENCODING 181
SWIDTH 615 0
DWIDTH 9 0
BBX 8 10 0 -3
BITMAP
31
31
23
23
63
66
5E
40
C0
C0
ENDCHAR

STARTCHAR paragraph
ENCODING 182
SWIDTH 552 0
DWIDTH 8 0
BBX 8 13 0 -3
BITMAP
3F
72
F2
F4
74
24
24
24
24
28
28
48
48
ENDCHAR

STARTCHAR periodcentered
ENCODING 183
SWIDTH 333 0
DWIDTH 5 0
BBX 3 2 2 5
BITMAP
E0
C0
ENDCHAR

STARTCHAR cedilla
ENCODING 184
SWIDTH 333 0
DWIDTH 5 0
BBX 4 4 0 -3
BITMAP
20
70
30
E0
ENDCHAR

STARTCHAR onesuperior
ENCODING 185
SWIDTH 333 0
DWIDTH 5 0
BBX 3 6 -6 4
BITMAP
60
20
40
40
40
E0
ENDCHAR

STARTCHAR ordmasculine
ENCODING 186
SWIDTH 375 0
DWIDTH 5 0
BBX 5 4 1 6
BITMAP
70
D0
98
F0
ENDCHAR

STARTCHAR guillemotright
ENCODING 187
SWIDTH 531 0
DWIDTH 7 0
BBX 7 7 1 0
BITMAP
36
64
4C
C8
48
48
6C
ENDCHAR

STARTCHAR onequarter
ENCODING 188
SWIDTH 927 0
DWIDTH 13 0
BBX 13 10 2 0
BITMAP
6020
2040
4080
4100
4218
E430
0C30
1850
3078
6030
ENDCHAR

STARTCHAR onehalf
ENCODING 189
SWIDTH 927 0
DWIDTH 13 0
BBX 13 10 2 0
BITMAP
6020
2040
4080
4100
4238
E428
0C18
1820
3058
6070
ENDCHAR

STARTCHAR threequarters
ENCODING 190
SWIDTH 927 0
DWIDTH 13 0
BBX 13 10 2 0
BITMAP
7020
5040
7080
2100
A218
E430
0C30
1850
3078
6030
ENDCHAR

STARTCHAR questiondown
ENCODING 191
SWIDTH 542 0
DWIDTH 8 0
BBX 7 10 0 -3
BITMAP
0C
1C
00
00
08
78
E0
C0
CE
78
ENDCHAR

STARTCHAR Agrave
ENCODING 192
SWIDTH 646 0
DWIDTH 9 0
BBX 10 13 0 0
BITMAP
0700
0180
0000
0FC0
0500
0500
0900
0980
0980
1F80
1180
2180
F3C0
ENDCHAR

STARTCHAR Aacute
ENCODING 193
SWIDTH 646 0
DWIDTH 9 0
BBX 10 13 0 0
BITMAP
0380
0600
0000
0FC0
0500
0500
0900
0980
0980
1F80
1180
2180
F3C0
ENDCHAR

STARTCHAR Acircumflex
ENCODING 194
SWIDTH 646 0
DWIDTH 9 0
BBX 10 14 0 0
BITMAP
0600
0D00
1900
0000
0FC0
0500
0500
0900
0980
0980
1F80
1180
2180
F3C0
ENDCHAR

STARTCHAR Atilde
ENCODING 195
SWIDTH 646 0
DWIDTH 9 0
BBX 10 13 0 0
BITMAP
0E80
0980
0000
0FC0
0500
0500
0900
0980
0980
1F80
1180
2180
F3C0
ENDCHAR

STARTCHAR Adieresis
ENCODING 196
SWIDTH 646 0
DWIDTH 9 0
BBX 10 13 0 0
BITMAP
0D80
0D80
0000
0FC0
0500
0500
0900
0980
0980
1F80
1180
2180
F3C0
ENDCHAR

STARTCHAR Aring
ENCODING 197
SWIDTH 646 0
DWIDTH 9 0
BBX 10 14 0 0
BITMAP
0700
0500
0700
0000
0FC0
0500
0500
0900
0980
0980
1F80
1180
2180
F3C0
ENDCHAR

STARTCHAR AE
ENCODING 198
SWIDTH 927 0
DWIDTH 13 0
BBX 15 10 0 0
BITMAP
0FFE
04C4
05C4
09C0
0FF0
1180
1180
2388
2388
F7F8
ENDCHAR

STARTCHAR Ccedilla
ENCODING 199
SWIDTH 771 0
DWIDTH 11 0
BBX 11 14 1 -4
BITMAP
0F60
38C0
70C0
6000
E000
E000
E000
E180
6380
3E00
1000
3800
1800
7000
ENDCHAR

STARTCHAR Egrave
ENCODING 200
SWIDTH 635 0
DWIDTH 9 0
BBX 10 13 0 0
BITMAP
0E00
0300
0000
3FC0
18C0
3980
3800
3E00
3000
3000
3180
7300
FF00
ENDCHAR

STARTCHAR Eacute
ENCODING 201
SWIDTH 635 0
DWIDTH 9 0
BBX 10 13 0 0
BITMAP
0380
0600
0000
3FC0
18C0
3980
3800
3E00
3000
3000
3180
7300
FF00
ENDCHAR

STARTCHAR Ecircumflex
ENCODING 202
SWIDTH 635 0
DWIDTH 9 0
BBX 10 14 0 0
BITMAP
0600
0D00
1900
0000
3FC0
18C0
3980
3800
3E00
3000
3000
3180
7300
FF00
ENDCHAR

STARTCHAR Edieresis
ENCODING 203
SWIDTH 635 0
DWIDTH 9 0
BBX 10 13 0 0
BITMAP
0D80
0D80
0000
3FC0
18C0
3980
3800
3E00
3000
3000
3180
7300
FF00
ENDCHAR

STARTCHAR Igrave
ENCODING 204
SWIDTH 396 0
DWIDTH 6 0
BBX 7 13 0 0
BITMAP
1C
06
00
3E
18
18
18
18
30
30
30
30
F8
ENDCHAR

STARTCHAR Iacute
ENCODING 205
SWIDTH 396 0
DWIDTH 6 0
BBX 7 13 0 0
BITMAP
0E
18
00
3E
18
18
18
18
30
30
30
30
F8
ENDCHAR

STARTCHAR Icircumflex
ENCODING 206
SWIDTH 396 0
DWIDTH 6 0
BBX 7 14 0 0
BITMAP
18
34
64
00
3E
18
18
18
18
30
30
30
30
F8
ENDCHAR

STARTCHAR Idieresis
ENCODING 207
SWIDTH 396 0
DWIDTH 6 0
BBX 7 13 0 0
BITMAP
36
36
00
3E
18
18
18
18
30
30
30
30
F8
ENDCHAR

STARTCHAR Eth
ENCODING 208
SWIDTH 760 0
DWIDTH 11 0
BBX 11 10 0 0
BITMAP
3F80
19C0
18C0
38E0
7EE0
30E0
30C0
31C0
3180
FF00
ENDCHAR

STARTCHAR Ntilde
ENCODING 209
SWIDTH 792 0
DWIDTH 11 0
BBX 12 13 0 0
BITMAP
0740
04C0
0000
3CF0
1C40
1440
1640
2640
2240
2380
2380
2380
F180
ENDCHAR

STARTCHAR Ograve
ENCODING 210
SWIDTH 823 0
DWIDTH 12 0
BBX 10 13 1 0
BITMAP
0E00
0300
0000
0F00
31C0
70C0
60C0
E0C0
E0C0
E1C0
E180
6300
3E00
ENDCHAR

STARTCHAR Oacute
ENCODING 211
SWIDTH 823 0
DWIDTH 12 0
BBX 10 13 1 0
BITMAP
0380
0600
0000
0F00
31C0
70C0
60C0
E0C0
E0C0
E1C0
E180
6300
3E00
ENDCHAR

STARTCHAR Ocircumflex
ENCODING 212
SWIDTH 823 0
DWIDTH 12 0
BBX 10 14 1 0
BITMAP
0600
0D00
1900
0000
0F00
31C0
70C0
60C0
E0C0
E0C0
E1C0
E180
6300
3E00
ENDCHAR

STARTCHAR Otilde
ENCODING 213
SWIDTH 823 0
DWIDTH 12 0
BBX 10 13 1 0
BITMAP
0E80
0980
0000
0F00
31C0
70C0
60C0
E0C0
E0C0
E1C0
E180
6300
3E00
ENDCHAR

STARTCHAR Odieresis
ENCODING 214
SWIDTH 823 0
DWIDTH 12 0
BBX 10 13 1 0
BITMAP
0D80
0D80
0000
0F00
31C0
70C0
60C0
E0C0
E0C0
E1C0
E180
6300
3E00
ENDCHAR

STARTCHAR multiply
ENCODING 215
SWIDTH 667 0
DWIDTH 9 0
BBX 7 7 1 1
BITMAP
C2
66
3C
18
3C
E6
82
ENDCHAR

STARTCHAR Oslash
ENCODING 216
SWIDTH 823 0
DWIDTH 12 0
BBX 10 10 1 0
BITMAP
0F40
31C0
71C0
63C0
E6C0
E4C0
E9C0
F180
6300
7E00
ENDCHAR

STARTCHAR Ugrave
ENCODING 217
SWIDTH 708 0
DWIDTH 10 0
BBX 9 13 2 0
BITMAP
1C00
0600
0000
FB80
6100
6100
6200
6200
E200
C200
C200
E400
7800
ENDCHAR

STARTCHAR Uacute
ENCODING 218
SWIDTH 708 0
DWIDTH 10 0
BBX 9 13 2 0
BITMAP
0700
0C00
0000
FB80
6100
6100
6200
6200
E200
C200
C200
E400
7800
ENDCHAR

STARTCHAR Ucircumflex
ENCODING 219
SWIDTH 708 0
DWIDTH 10 0
BBX 9 14 2 0
BITMAP
0C00
1A00
3200
0000
FB80
6100
6100
6200
6200
E200
C200
C200
E400
7800
ENDCHAR

STARTCHAR Udieresis
ENCODING 220
SWIDTH 708 0
DWIDTH 10 0
BBX 9 13 2 0
BITMAP
1B00
1B00
0000
FB80
6100
6100
6200
6200
E200
C200
C200
E400
7800
ENDCHAR

STARTCHAR Yacute
ENCODING 221
SWIDTH 625 0
DWIDTH 9 0
BBX 10 13 1 0
BITMAP
0700
0C00
0000
F3C0
6300
2200
3400
3C00
1800
3800
3800
3000
7800
ENDCHAR

STARTCHAR Thorn
ENCODING 222
SWIDTH 646 0
DWIDTH 9 0
BBX 9 10 0 0
BITMAP
3E00
1F00
1B80
3180
3180
3180
3380
3F00
7000
F800
ENDCHAR

STARTCHAR germandbls
ENCODING 223
SWIDTH 615 0
DWIDTH 9 0
BBX 9 10 0 0
BITMAP
0F00
1980
1180
3300
3600
3300
2300
2300
6300
FE00
ENDCHAR

STARTCHAR agrave
ENCODING 224
SWIDTH 573 0
DWIDTH 8 0
BBX 7 10 1 0
BITMAP
38
0C
00
7C
06
06
7E
CC
CC
7E
ENDCHAR

STARTCHAR aacute
ENCODING 225
SWIDTH 573 0
DWIDTH 8 0
BBX 7 10 1 0
BITMAP
0E
18
00
7C
06
06
7E
CC
CC
7E
ENDCHAR

STARTCHAR acircumflex
ENCODING 226
SWIDTH 573 0
DWIDTH 8 0
BBX 7 11 1 0
BITMAP
18
34
64
00
7C
06
06
7E
CC
CC
7E
ENDCHAR

STARTCHAR atilde
ENCODING 227
SWIDTH 573 0
DWIDTH 8 0
BBX 7 10 1 0
BITMAP
3A
26
00
7C
06
06
7E
CC
CC
7E
ENDCHAR

STARTCHAR adieresis
ENCODING 228
SWIDTH 573 0
DWIDTH 8 0
BBX 7 10 1 0
BITMAP
36
36
00
7C
06
06
7E
CC
CC
7E
ENDCHAR

STARTCHAR aring
ENCODING 229
SWIDTH 573 0
DWIDTH 8 0
BBX 7 11 1 0
BITMAP
1C
14
1C
00
7C
06
06
7E
CC
CC
7E
ENDCHAR

STARTCHAR ae
ENCODING 230
SWIDTH 844 0
DWIDTH 12 0
BBX 11 7 1 0
BITMAP
7DC0
0660
0660
7FE0
CC00
CE40
7780
ENDCHAR

STARTCHAR ccedilla
ENCODING 231
SWIDTH 531 0
DWIDTH 7 0
BBX 7 11 1 -4
BITMAP
3E
66
C0
C0
C0
CC
78
20
70
30
E0
ENDCHAR

STARTCHAR egrave
ENCODING 232
SWIDTH 552 0
DWIDTH 8 0
BBX 7 10 1 0
BITMAP
38
0C
00
3C
64
C6
FE
C0
CC
78
ENDCHAR

STARTCHAR eacute
ENCODING 233
SWIDTH 552 0
DWIDTH 8 0
BBX 7 10 1 0
BITMAP
0E
18
00
3C
64
C6
FE
C0
CC
78
ENDCHAR

STARTCHAR ecircumflex
ENCODING 234
SWIDTH 552 0
DWIDTH 8 0
BBX 7 11 1 0
BITMAP
18
34
64
00
3C
64
C6
FE
C0
CC
78
ENDCHAR

STARTCHAR edieresis
ENCODING 235
SWIDTH 552 0
DWIDTH 8 0
BBX 7 10 1 0
BITMAP
36
36
00
3C
64
C6
FE
C0
CC
78
ENDCHAR

STARTCHAR igrave
ENCODING 236
SWIDTH 333 0
DWIDTH 5 0
BBX 5 10 0 0
BITMAP
70
18
00
70
30
30
20
20
60
F0
ENDCHAR

STARTCHAR iacute
ENCODING 237
SWIDTH 333 0
DWIDTH 5 0
BBX 6 10 0 0
BITMAP
1C
30
00
70
30
30
20
20
60
F0
ENDCHAR

STARTCHAR icircumflex
ENCODING 238
SWIDTH 333 0
DWIDTH 5 0
BBX 5 11 0 0
BITMAP
30
68
C8
00
70
30
30
20
20
60
F0
ENDCHAR

STARTCHAR idieresis
ENCODING 239
SWIDTH 333 0
DWIDTH 5 0
BBX 6 10 0 0
BITMAP
6C
6C
00
70
30
30
20
20
60
F0
ENDCHAR

STARTCHAR eth
ENCODING 240
SWIDTH 635 0
DWIDTH 9 0
BBX 7 10 1 0
BITMAP
34
3C
04
3E
66
C6
C6
C6
CC
78
ENDCHAR

STARTCHAR ntilde
ENCODING 241
SWIDTH 604 0
DWIDTH 8 0
BBX 8 10 0 0
BITMAP
1D
13
00
76
7F
33
33
26
66
F7
ENDCHAR

STARTCHAR ograve
ENCODING 242
SWIDTH 573 0
DWIDTH 8 0
BBX 7 10 1 0
BITMAP
38
0C
00
3C
66
C6
C6
C6
CC
78
ENDCHAR

STARTCHAR oacute
ENCODING 243
SWIDTH 573 0
DWIDTH 8 0
BBX 7 10 1 0
BITMAP
0E
18
00
3C
66
C6
C6
C6
CC
78
ENDCHAR

STARTCHAR ocircumflex
ENCODING 244
SWIDTH 573 0
DWIDTH 8 0
BBX 7 11 1 0
BITMAP
18
34
64
00
3C
66
C6
C6
C6
CC
78
ENDCHAR

STARTCHAR otilde
ENCODING 245
SWIDTH 573 0
DWIDTH 8 0
BBX 7 10 1 0
BITMAP
3A
26
00
3C
66
C6
C6
C6
CC
78
ENDCHAR

STARTCHAR odieresis
ENCODING 246
SWIDTH 573 0
DWIDTH 8 0
BBX 7 10 1 0
BITMAP
36
36
00
3C
66
C6
C6
C6
CC
78
ENDCHAR

STARTCHAR divide
ENCODING 247
SWIDTH 668 0
DWIDTH 9 0
BBX 8 7 1 1
BITMAP
18
18
00
FF
00
18
18
ENDCHAR

STARTCHAR oslash
ENCODING 248
SWIDTH 573 0
DWIDTH 8 0
BBX 7 7 1 0
BITMAP
3E
66
CE
D6
E6
CC
F8
ENDCHAR

STARTCHAR ugrave
ENCODING 249
SWIDTH 604 0
DWIDTH 8 0
BBX 7 10 1 0
BITMAP
38
0C
00
EE
66
64
CC
CC
FE
EE
ENDCHAR

STARTCHAR uacute
ENCODING 250
SWIDTH 604 0
DWIDTH 8 0
BBX 7 10 1 0
BITMAP
0E
18
00
EE
66
64
CC
CC
FE
EE
ENDCHAR

STARTCHAR ucircumflex
ENCODING 251
SWIDTH 604 0
DWIDTH 8 0
BBX 7 11 1 0
BITMAP
18
34
64
00
EE
66
64
CC
CC
FE
EE
ENDCHAR

STARTCHAR udieresis
ENCODING 252
SWIDTH 604 0
DWIDTH 8 0
BBX 7 10 1 0
BITMAP
36
36
00
EE
66
64
CC
CC
FE
EE
ENDCHAR

STARTCHAR yacute
ENCODING 253
SWIDTH 563 0
DWIDTH 8 0
BBX 8 13 0 -3
BITMAP
07
0C
00
F7
66
64
2C
28
38
30
20
20
C0
ENDCHAR

STARTCHAR thorn
ENCODING 254
SWIDTH 604 0
DWIDTH 8 0
BBX 9 13 0 -3
BITMAP
1C00
0C00
1800
1F00
1980
1980
3180
3180
3B00
3E00
2000
6000
F000
ENDCHAR

STARTCHAR ydieresis
ENCODING 255
SWIDTH 563 0
DWIDTH 8 0
BBX 8 13 0 -3
BITMAP
1B
1B
00
F7
66
64
2C
28
38
30
20
20
C0
ENDCHAR
ENDFONT
